<svg width="105" height="105" viewBox="0 0 105 105" fill="none" xmlns="http://www.w3.org/2000/svg">
<path d="M92.5978 26.5412C99.0252 26.5412 104.236 21.3319 104.236 14.9059C104.236 8.47987 99.0252 3.27057 92.5978 3.27057C86.1703 3.27057 80.9598 8.47987 80.9598 14.9059C80.9598 21.3319 86.1703 26.5412 92.5978 26.5412Z" fill="#3E539B" fill-opacity="0.09"/>
<path d="M48.0699 80.9412C47.0579 80.9412 46.5519 80.4353 46.5519 79.4235V67.7882C60.2139 63.2353 69.8278 50.0824 69.8278 34.9059C69.8278 19.7294 54.1419 0 34.9139 0C15.686 0 0 15.6824 0 34.9059C0 54.1294 9.61397 63.2353 23.2759 67.7882V85.4941C23.2759 96.1177 31.3719 104.212 41.9979 104.212H101.706V80.9412H48.0699ZM34.9139 23.2706C41.4919 23.2706 46.5519 28.3294 46.5519 34.9059C46.5519 41.4824 41.4919 46.5412 34.9139 46.5412C28.3359 46.5412 23.2759 41.4824 23.2759 34.9059C23.2759 28.3294 28.3359 23.2706 34.9139 23.2706Z" fill="#3E539B" fill-opacity="0.09"/>
</svg>
