<svg width="40" height="40" viewBox="0 0 40 40" fill="none" xmlns="http://www.w3.org/2000/svg">
<path d="M34 0H6.01664C2.71667 0 0 2.73764 0 6.08361V33.9164C0 37.2624 2.71667 40 6.01664 40H34C37.3167 40 40 37.2624 40 33.9164V6.08361C40 2.73764 37.3167 0 34 0ZM11.3834 4.63032C12.3833 4.63032 13.2001 5.47527 13.2001 6.48917C13.2001 7.50318 12.3833 8.3143 11.3834 8.3143C10.3834 8.3143 9.55007 7.50318 9.55007 6.48917C9.55007 5.47527 10.3834 4.63032 11.3834 4.63032ZM5.25004 4.63032C6.25 4.63032 7.05007 5.47527 7.05007 6.48917C7.05007 7.50318 6.25 8.3143 5.25004 8.3143C4.2334 8.3143 3.41665 7.50318 3.41665 6.48917C3.41665 5.47527 4.2334 4.63032 5.25004 4.63032ZM36.3667 33.9164C36.3667 35.2175 35.3167 36.2991 34 36.2991H6.01664C4.71669 36.2991 3.63332 35.2175 3.63332 33.9164V12.0829H36.3667V33.9164Z" fill="#ABFF1A"/>
<path d="M14.4334 31.2632H24.4C25.7167 31.2632 26.6834 29.8775 26.1168 28.6608C24.9334 26.109 22.3833 24.3177 19.4167 24.3177C16.4333 24.3177 13.8834 26.109 12.7167 28.6608C12.1501 29.8775 13.1 31.2632 14.4334 31.2632Z" fill="#ABFF1A"/>
<path d="M22.7834 20.9041C22.7834 19.0114 21.2834 17.4735 19.4167 17.4735C17.55 17.4735 16.0333 19.0114 16.0333 20.9041C16.0333 22.7968 17.55 24.3177 19.4167 24.3177C21.2834 24.3177 22.7834 22.7968 22.7834 20.9041Z" fill="#ABFF1A"/>
</svg>
