<svg width="47" height="47" viewBox="0 0 47 47" fill="none" xmlns="http://www.w3.org/2000/svg">
<g clip-path="url(#clip0_264_238)">
<path fill-rule="evenodd" clip-rule="evenodd" d="M33.258 25.1432C32.9367 24.8861 32.441 24.7576 31.7525 24.7576H28.7416V27.8879H31.7525C32.441 27.8879 32.9367 27.7594 33.258 27.4932C33.5701 27.227 33.7354 26.8414 33.7354 26.309C33.7262 25.7949 33.5701 25.4002 33.258 25.1432Z" fill="#ABFF1A"/>
<path fill-rule="evenodd" clip-rule="evenodd" d="M32.8725 21.6733C33.1846 21.4346 33.3498 21.0582 33.3498 20.5625C33.3498 20.0668 33.1938 19.6996 32.8725 19.4609C32.5512 19.2223 32.0646 19.1121 31.3854 19.1121H28.7416V22.0313H31.3854C32.0555 22.0313 32.5512 21.9119 32.8725 21.6733Z" fill="#ABFF1A"/>
<path fill-rule="evenodd" clip-rule="evenodd" d="M37.8203 7.43555H9.17969C4.1125 7.43555 0 11.548 0 16.6152V30.3848C0 35.452 4.1125 39.5645 9.17969 39.5645H37.8203C42.8875 39.5645 47 35.452 47 30.3848V16.6152C47 11.548 42.8875 7.43555 37.8203 7.43555ZM22.7014 28.5213C22.7014 28.9252 22.6187 29.2648 22.4443 29.5494C22.2791 29.834 22.0129 30.0359 21.6457 30.1553C21.0123 30.3756 20.3238 30.5408 19.5895 30.6602C18.8459 30.7795 18.1115 30.8438 17.368 30.8438C15.734 30.8438 14.357 30.5408 13.2188 29.935C12.0805 29.3291 11.2176 28.4846 10.6209 27.3922C10.0242 26.2998 9.73047 25.033 9.73047 23.5734C9.73047 22.4443 9.90488 21.4254 10.2629 20.5166C10.6209 19.6078 11.135 18.8275 11.8051 18.1758C12.4752 17.524 13.3014 17.0283 14.2744 16.6795C15.2475 16.3398 16.3582 16.1654 17.5975 16.1654C18.2676 16.1654 18.9561 16.2297 19.6537 16.3582C20.3514 16.4867 21.0398 16.7254 21.71 17.0742C22.0588 17.2395 22.2975 17.4598 22.426 17.7535C22.5545 18.0473 22.5912 18.3502 22.5453 18.6623C22.4994 18.9744 22.3801 19.2682 22.2057 19.5344C22.0221 19.8006 21.7742 19.975 21.4713 20.0576C21.1592 20.1494 20.8104 20.1035 20.4248 19.9291C20.0209 19.7363 19.5803 19.5986 19.1121 19.4977C18.6439 19.3967 18.1391 19.3508 17.6158 19.3508C16.7162 19.3508 15.9635 19.516 15.3668 19.8373C14.7701 20.1586 14.3203 20.6359 14.0266 21.2693C13.7328 21.9027 13.5859 22.6738 13.5859 23.5918C13.5859 24.9688 13.9256 26.0061 14.5957 26.7037C15.2658 27.4014 16.2664 27.7502 17.5883 27.7502C17.9922 27.7502 18.4328 27.7135 18.9102 27.6309C19.158 27.585 19.415 27.5391 19.6629 27.4748V25.2258H18.2492C17.7902 25.2258 17.4414 25.1156 17.1844 24.8861C16.9365 24.6566 16.808 24.3354 16.808 23.9131C16.808 23.4908 16.9365 23.1787 17.1844 22.9492C17.4322 22.7289 17.7902 22.6187 18.2492 22.6187H21.2418C21.71 22.6187 22.0771 22.7473 22.325 22.9951C22.5729 23.243 22.7014 23.601 22.7014 24.0783V28.5213ZM35.9201 29.5402C35.0205 30.2654 33.7996 30.6234 32.2574 30.6234H27.126C26.4926 30.6234 26.0152 30.4582 25.6848 30.1277C25.3543 29.7973 25.1891 29.3199 25.1891 28.7049V18.3043C25.1891 17.6893 25.3543 17.2119 25.6848 16.8814C26.0152 16.551 26.4926 16.3857 27.126 16.3857H32.0555C33.0744 16.3857 33.9465 16.5326 34.6717 16.8355C35.3877 17.1385 35.9385 17.5699 36.3148 18.1207C36.6912 18.6715 36.884 19.3232 36.884 20.0576C36.884 20.893 36.6453 21.609 36.168 22.1965C35.8008 22.6463 35.3418 22.9859 34.7818 23.2154C35.4795 23.4266 36.0486 23.7662 36.4709 24.2527C37.0033 24.8586 37.2695 25.6297 37.2695 26.5752C37.2604 27.8328 36.8105 28.815 35.9201 29.5402Z" fill="#ABFF1A"/>
</g>
<defs>
<clipPath id="clip0_264_238">
<rect width="47" height="47" fill="white"/>
</clipPath>
</defs>
</svg>
