<svg width="32" height="32" viewBox="0 0 32 32" fill="none" xmlns="http://www.w3.org/2000/svg">
<path d="M16 0C7.2 0 0 7.2 0 16C0 24.8 7.2 32 16 32C24.8 32 32 24.8 32 16C32 7.2 24.8 0 16 0ZM16 30C8.3 30 2 23.7 2 16C2 8.3 8.3 2 16 2C23.7 2 30 8.3 30 16C30 23.7 23.7 30 16 30Z" fill="white" fill-opacity="0.3"/>
<path d="M16 13C14.9 13 14 13.9 14 15V22C14 23.1 14.9 24 16 24C17.1 24 18 23.1 18 22V15C18 13.9 17.1 13 16 13Z" fill="white" fill-opacity="0.3"/>
<path d="M16 11C17.1046 11 18 10.1046 18 9C18 7.89543 17.1046 7 16 7C14.8954 7 14 7.89543 14 9C14 10.1046 14.8954 11 16 11Z" fill="white" fill-opacity="0.3"/>
</svg>
