<svg width="863" height="462" viewBox="0 0 863 462" fill="none" xmlns="http://www.w3.org/2000/svg">
<path d="M220.617 432.89C220.617 437.172 224.413 440.643 229.096 440.643C233.779 440.643 237.576 437.172 237.576 432.89C237.576 428.608 233.779 425.136 229.096 425.136C224.413 425.136 220.617 428.608 220.617 432.89Z" fill="white"/>
<path d="M215.317 216.762C220.087 216.762 223.797 213.37 223.797 209.009C223.797 204.647 220.087 201.255 215.317 201.255C210.547 201.255 206.838 204.647 206.838 209.009C206.838 213.37 210.547 216.762 215.317 216.762Z" fill="white"/>
<path d="M285.803 246.807C290.572 246.807 294.282 243.415 294.282 239.053C294.282 234.692 290.572 231.3 285.803 231.3C281.033 231.3 277.323 234.692 277.323 239.053C277.323 243.415 281.033 246.807 285.803 246.807Z" fill="white"/>
<path d="M749.525 178.479C749.525 182.762 753.321 186.233 758.004 186.233C762.688 186.233 766.484 182.762 766.484 178.479C766.484 174.197 762.688 170.726 758.004 170.726C753.321 170.726 749.525 174.197 749.525 178.479Z" fill="white"/>
<path d="M648.831 58.3009C653.601 58.3009 657.31 54.9088 657.31 50.5475C657.31 46.1862 653.601 42.794 648.831 42.794C644.061 42.794 640.352 46.1862 640.352 50.5475C640.352 54.9088 644.061 58.3009 648.831 58.3009Z" fill="white"/>
<path d="M229.096 109.183C233.866 109.183 237.576 105.791 237.576 101.43C237.576 97.0682 233.866 93.6761 229.096 93.6761C224.327 93.6761 220.617 97.0682 220.617 101.43C220.617 105.791 224.327 109.183 229.096 109.183Z" fill="white"/>
<path d="M191.468 111.606C196.238 111.606 199.948 108.214 199.948 103.852C199.948 99.4911 196.238 96.099 191.468 96.099C186.699 96.099 182.989 99.4911 182.989 103.852C182.989 108.214 186.699 111.606 191.468 111.606Z" fill="white"/>
<path d="M45.7273 86.4072C50.4971 86.4072 54.2068 83.0151 54.2068 78.6538C54.2068 74.2925 50.4971 70.9003 45.7273 70.9003C40.9576 70.9003 37.2478 74.2925 37.2478 78.6538C37.2478 83.0151 40.9576 86.4072 45.7273 86.4072Z" fill="white"/>
<path d="M5.44966 12.7493C5.44966 17.0314 9.24609 20.5028 13.9292 20.5028C18.6123 20.5028 22.4086 17.0314 22.4086 12.7493C22.4086 8.4672 18.6123 4.99585 13.9292 4.99585C9.24609 4.99585 5.44966 8.4672 5.44966 12.7493Z" fill="white"/>
<path d="M220.617 328.703C225.387 328.703 229.096 325.311 229.096 320.949C229.096 316.588 225.387 313.196 220.617 313.196C215.847 313.196 212.137 316.588 212.137 320.949C212.137 325.311 215.847 328.703 220.617 328.703Z" fill="white"/>
<path d="M97.6642 453.727C97.6642 458.009 101.461 461.481 106.144 461.481C110.827 461.481 114.623 458.009 114.623 453.727C114.623 449.445 110.827 445.974 106.144 445.974C101.461 445.974 97.6642 449.445 97.6642 453.727Z" fill="white"/>
<path d="M702.888 342.271C707.657 342.271 711.367 338.879 711.367 334.518C711.367 330.156 707.657 326.764 702.888 326.764C698.118 326.764 694.408 330.156 694.408 334.518C694.408 338.879 698.118 342.271 702.888 342.271Z" fill="white"/>
<path d="M699.178 200.771C699.178 205.053 702.974 208.524 707.658 208.524C712.341 208.524 716.137 205.053 716.137 200.771C716.137 196.489 712.341 193.017 707.658 193.017C702.974 193.017 699.178 196.489 699.178 200.771Z" fill="white"/>
<path d="M658.9 166.849C663.67 166.849 667.38 163.457 667.38 159.096C667.38 154.735 663.67 151.342 658.9 151.342C654.131 151.342 650.421 154.735 650.421 159.096C650.421 163.457 654.131 166.849 658.9 166.849Z" fill="white"/>
<path d="M350.989 311.742C350.989 316.024 354.785 319.495 359.468 319.495C364.151 319.495 367.948 316.024 367.948 311.742C367.948 307.46 364.151 303.988 359.468 303.988C354.785 303.988 350.989 307.46 350.989 311.742Z" fill="white"/>
<path d="M501.5 254.56C506.27 254.56 509.979 251.168 509.979 246.807C509.979 242.445 506.27 239.053 501.5 239.053C496.73 239.053 493.02 242.445 493.02 246.807C493.02 251.168 496.73 254.56 501.5 254.56Z" fill="white"/>
<path d="M89.1848 289.451C89.1848 293.733 92.9811 297.204 97.6642 297.204C102.347 297.204 106.144 293.733 106.144 289.451C106.144 285.169 102.347 281.697 97.6642 281.697C92.9811 281.697 89.1848 285.169 89.1848 289.451Z" fill="white"/>
<path d="M118.863 397.514C118.863 401.797 122.659 405.268 127.342 405.268C132.025 405.268 135.822 401.797 135.822 397.515C135.822 393.232 132.025 389.761 127.342 389.761C122.659 389.761 118.863 393.232 118.863 397.514Z" fill="white"/>
<path d="M628.692 295.266C633.462 295.266 637.172 291.874 637.172 287.512C637.172 283.151 633.462 279.759 628.692 279.759C623.922 279.759 620.213 283.151 620.213 287.512C620.213 291.874 623.922 295.266 628.692 295.266Z" fill="white"/>
<path d="M60.5664 52.9705C65.3361 52.9705 69.0459 49.5783 69.0459 45.217C69.0459 40.8557 65.3361 37.4636 60.5664 37.4636C55.7967 37.4636 52.0869 40.8557 52.0869 45.217C52.0869 49.5783 55.7967 52.9705 60.5664 52.9705Z" fill="white"/>
<path d="M175.569 136.805C175.569 141.087 179.366 144.558 184.049 144.558C188.732 144.558 192.528 141.087 192.528 136.805C192.528 132.523 188.732 129.051 184.049 129.051C179.366 129.051 175.569 132.523 175.569 136.805Z" fill="white"/>
<path d="M508.92 193.502C508.92 197.784 512.716 201.255 517.399 201.255C522.082 201.255 525.878 197.784 525.878 193.502C525.878 189.22 522.082 185.748 517.399 185.748C512.716 185.748 508.92 189.22 508.92 193.502Z" fill="white"/>
<path d="M229.096 432.89L278.383 388.307L538.598 388.307L601.134 331.126L663.14 331.126L703.948 368.439L846.509 368.439" stroke="white" stroke-width="0.8" stroke-miterlimit="10"/>
<path d="M215.317 209.009L640.881 209.009L754.295 105.791L839.62 105.791" stroke="white" stroke-width="0.8" stroke-miterlimit="10"/>
<path d="M285.803 239.053L460.162 239.053L492.49 209.009" stroke="white" stroke-width="0.8" stroke-miterlimit="10"/>
<path d="M229.096 101.43L271.494 139.712L527.468 139.712L564.566 173.634L605.374 173.634L714.547 73.8079L862.938 73.8079" stroke="white" stroke-width="0.8" stroke-miterlimit="10"/>
<path d="M13.9292 12.7493L379.607 12.7493L433.134 61.693L582.055 61.693L633.992 13.7185L846.509 13.7185" stroke="white" stroke-width="0.8" stroke-miterlimit="10"/>
<path d="M184.049 136.805L214.257 164.426L383.847 164.426L415.115 193.502L517.399 193.502" stroke="white" stroke-width="0.8" stroke-miterlimit="10"/>
<path d="M97.664 289.451L252.415 289.451L280.503 264.252L538.068 264.252L577.285 227.908L705.538 227.908L797.222 311.742L853.929 311.742" stroke="white" stroke-width="0.8" stroke-miterlimit="10"/>
<path d="M220.617 320.949L260.364 320.949L323.431 263.283" stroke="white" stroke-width="0.8" stroke-miterlimit="10"/>
<path d="M127.342 397.514L176.629 352.447L257.184 352.447L328.2 287.512L628.692 287.512" stroke="white" stroke-width="0.8" stroke-miterlimit="10"/>
<path d="M106.144 453.727L194.648 372.316L350.989 372.316L423.065 306.412L730.446 306.412L747.405 322.403L846.509 322.403" stroke="white" stroke-width="0.8" stroke-miterlimit="10"/>
<path d="M702.888 334.518L835.91 334.518" stroke="white" stroke-width="0.8" stroke-miterlimit="10"/>
<path d="M359.468 311.742L414.585 362.139L637.172 362.139L715.607 290.905L846.509 290.905" stroke="white" stroke-width="0.8" stroke-miterlimit="10"/>
<path d="M501.5 246.807L681.159 246.807L704.478 268.129L839.62 268.129" stroke="white" stroke-width="0.8" stroke-miterlimit="10"/>
<path d="M707.657 200.771L729.386 220.639L846.509 220.639" stroke="white" stroke-width="0.8" stroke-miterlimit="10"/>
<path d="M694.408 160.065L738.396 160.065L758.004 178.479" stroke="white" stroke-width="0.8" stroke-miterlimit="10"/>
<path d="M60.5663 45.217L206.838 45.217L247.645 82.5305L628.692 82.5305L682.219 131.474L839.62 131.474" stroke="white" stroke-width="0.8" stroke-miterlimit="10"/>
<path d="M648.831 50.5475L702.888 99.4912L735.746 99.4912L763.834 74.2924" stroke="white" stroke-width="0.8" stroke-miterlimit="10"/>
<path d="M298.522 82.5305L326.61 108.214L508.919 108.214L528.528 126.628L622.862 126.628L658.9 159.096" stroke="white" stroke-width="0.8" stroke-miterlimit="10"/>
<path d="M191.469 103.368L164.44 79.1384L45.7273 79.1384" stroke="white" stroke-width="0.8" stroke-miterlimit="10"/>
<path d="M0.149986 12.7494C0.149985 19.7078 6.31916 25.3488 13.9292 25.3488C21.5392 25.3488 27.7083 19.7078 27.7083 12.7494C27.7083 5.79096 21.5392 0.150024 13.9292 0.150024C6.31916 0.150023 0.149986 5.79096 0.149986 12.7494Z" stroke="white" stroke-width="0.3" stroke-miterlimit="10"/>
<path d="M31.9481 78.6536C31.9481 85.6121 38.1173 91.253 45.7273 91.253C53.3373 91.253 59.5064 85.6121 59.5064 78.6536C59.5064 71.6952 53.3373 66.0543 45.7273 66.0543C38.1173 66.0543 31.9481 71.6952 31.9481 78.6536Z" stroke="white" stroke-width="0.3" stroke-miterlimit="10"/>
<path d="M177.689 103.368C177.689 110.326 183.858 115.967 191.468 115.967C199.079 115.967 205.248 110.326 205.248 103.368C205.248 96.4095 199.079 90.7686 191.468 90.7686C183.858 90.7686 177.689 96.4095 177.689 103.368Z" stroke="white" stroke-width="0.3" stroke-miterlimit="10"/>
<path d="M201.538 209.009C201.538 215.967 207.707 221.608 215.317 221.608C222.927 221.608 229.096 215.967 229.096 209.009C229.096 202.05 222.927 196.409 215.317 196.409C207.707 196.409 201.538 202.05 201.538 209.009Z" stroke="white" stroke-width="0.3" stroke-miterlimit="10"/>
<path d="M635.052 50.5474C635.052 57.5059 641.221 63.1468 648.831 63.1468C656.441 63.1468 662.61 57.5059 662.61 50.5474C662.61 43.589 656.441 37.9481 648.831 37.9481C641.221 37.9481 635.052 43.589 635.052 50.5474Z" stroke="white" stroke-width="0.3" stroke-miterlimit="10"/>
<path d="M744.225 178.48C744.225 185.438 750.394 191.079 758.004 191.079C765.614 191.079 771.784 185.438 771.784 178.48C771.784 171.521 765.614 165.88 758.004 165.88C750.394 165.88 744.225 171.521 744.225 178.48Z" stroke="white" stroke-width="0.3" stroke-miterlimit="10"/>
<path d="M272.024 239.053C272.024 246.012 278.193 251.653 285.803 251.653C293.413 251.653 299.582 246.012 299.582 239.053C299.582 232.095 293.413 226.454 285.803 226.454C278.193 226.454 272.024 232.095 272.024 239.053Z" stroke="white" stroke-width="0.3" stroke-miterlimit="10"/>
<path d="M215.317 432.89C215.317 439.848 221.486 445.489 229.096 445.489C236.706 445.489 242.875 439.848 242.875 432.89C242.875 425.931 236.706 420.29 229.096 420.29C221.486 420.29 215.317 425.931 215.317 432.89Z" stroke="white" stroke-width="0.3" stroke-miterlimit="10"/>
<path d="M215.317 100.945C215.317 107.903 221.486 113.544 229.096 113.544C236.706 113.544 242.875 107.903 242.875 100.945C242.875 93.9865 236.706 88.3456 229.096 88.3456C221.486 88.3456 215.317 93.9865 215.317 100.945Z" stroke="white" stroke-width="0.3" stroke-miterlimit="10"/>
</svg>
