<svg width="273" height="148" viewBox="0 0 273 148" fill="none" xmlns="http://www.w3.org/2000/svg">
<g clip-path="url(#clip0_23_332)">
<path d="M38.572 136.15C37.5274 138.457 36.0886 140.488 34.2556 142.242C32.4226 143.997 30.2939 145.397 27.8499 146.442C25.4059 147.487 22.8042 148 20.0645 148C17.3249 148 14.6838 147.487 12.2595 146.442C9.83517 145.397 7.70652 143.997 5.89322 142.242C4.06021 140.488 2.6214 138.457 1.57678 136.15C0.532164 133.843 0 131.437 0 128.913C0 126.389 0.532164 124.004 1.57678 121.716C2.6214 119.429 4.06021 117.398 5.89322 115.643C7.70652 113.889 9.83517 112.489 12.2595 111.424C14.6838 110.359 17.2855 109.846 20.0645 109.846C22.8436 109.846 25.4059 110.379 27.8499 111.424C30.2939 112.469 32.4226 113.889 34.2556 115.643C36.0886 117.398 37.5274 119.429 38.572 121.716C39.6166 124.004 40.1488 126.409 40.1488 128.913C40.1488 131.417 39.6166 133.843 38.572 136.15ZM12.2398 132.167C12.7128 133.192 13.3435 134.099 14.1122 134.888C14.9006 135.676 15.8072 136.307 16.8321 136.781C17.857 137.254 18.9214 137.49 20.0645 137.49C21.2077 137.49 22.272 137.254 23.2969 136.781C24.3219 136.307 25.2285 135.676 26.0169 134.888C26.8053 134.099 27.436 133.192 27.909 132.167C28.3821 131.141 28.6186 130.057 28.6186 128.933C28.6186 127.809 28.3821 126.725 27.909 125.699C27.436 124.674 26.8053 123.767 26.0169 122.978C25.2285 122.19 24.3219 121.559 23.2969 121.085C22.272 120.612 21.188 120.376 20.0645 120.376C18.9411 120.376 17.857 120.612 16.8321 121.085C15.8072 121.559 14.9006 122.19 14.1122 122.978C13.3238 123.767 12.6931 124.674 12.2398 125.699C11.7667 126.725 11.5302 127.809 11.5302 128.933C11.5302 130.057 11.7667 131.141 12.2398 132.167Z" fill="#2D59F4"/>
<path d="M83.8059 146.501H72.256V126.409H71.7633L63.229 136.445L54.6946 126.409H54.2019V146.501H42.6519V111.345H55.2071L63.229 120.888L71.2508 111.345H83.8059V146.501Z" fill="#2D59F4"/>
<path d="M99.8694 146.501H87.8267V111.345H99.3766V127.908H99.8694L109.409 111.345H121.452V146.501H109.902V129.939H109.448L99.8694 146.501Z" fill="#2D59F4"/>
<path d="M147.488 113.415C149.302 111.7 151.903 110.852 155.313 110.852H159.078V121.401H157.58C156.752 121.401 156.318 121.815 156.318 122.663V123.412C156.318 124.28 156.121 125.009 155.727 125.581C155.333 126.153 154.899 126.626 154.426 126.981C153.854 127.375 153.243 127.711 152.573 127.927V128.42C153.381 128.657 154.071 128.992 154.682 129.426C155.214 129.801 155.707 130.313 156.161 130.964C156.614 131.615 156.831 132.443 156.831 133.448V135.203C156.831 136.031 157.245 136.465 158.092 136.465H159.59V147.014H155.825C152.416 147.014 149.794 146.166 148.001 144.451C146.187 142.735 145.281 140.507 145.281 137.727V135.223C145.281 134.395 144.867 133.961 144.019 133.961H137.003V146.521H125.453V111.365H137.003V123.412H143.527C144.354 123.412 144.788 122.998 144.788 122.15V120.139C144.788 117.359 145.695 115.111 147.508 113.415H147.488Z" fill="#2D59F4"/>
<path d="M187.42 112.37C189.273 113.06 190.869 114.007 192.17 115.21C193.471 116.412 194.476 117.852 195.186 119.508C195.895 121.164 196.25 122.959 196.25 124.911C196.25 126.863 195.895 128.657 195.186 130.313C194.476 131.97 193.471 133.409 192.17 134.612C190.869 135.814 189.293 136.761 187.42 137.451C185.567 138.141 183.478 138.476 181.172 138.476H173.643V146.501H162.093V111.345H181.172C183.478 111.345 185.567 111.68 187.42 112.37ZM173.643 128.42H181.172C181.606 128.42 182.039 128.322 182.453 128.125C182.867 127.927 183.242 127.651 183.577 127.316C183.912 126.981 184.188 126.606 184.385 126.192C184.582 125.778 184.681 125.344 184.681 124.911C184.681 124.477 184.582 124.043 184.385 123.629C184.188 123.215 183.912 122.84 183.577 122.505C183.242 122.17 182.867 121.894 182.453 121.697C182.039 121.5 181.606 121.401 181.172 121.401H173.643V128.44V128.42Z" fill="#2D59F4"/>
<path d="M235.788 136.15C234.724 138.457 233.285 140.488 231.472 142.242C229.639 143.997 227.51 145.397 225.066 146.442C222.622 147.487 220.02 148 217.28 148C214.541 148 211.9 147.487 209.475 146.442C207.051 145.397 204.922 143.997 203.109 142.242C201.276 140.488 199.837 138.457 198.793 136.15C197.728 133.843 197.216 131.437 197.216 128.913C197.216 126.389 197.748 124.004 198.793 121.716C199.857 119.429 201.276 117.398 203.109 115.643C204.922 113.889 207.051 112.489 209.475 111.424C211.9 110.359 214.501 109.846 217.28 109.846C220.06 109.846 222.622 110.379 225.066 111.424C227.51 112.469 229.639 113.889 231.472 115.643C233.285 117.398 234.743 119.429 235.788 121.716C236.833 124.004 237.365 126.409 237.365 128.913C237.365 131.417 236.833 133.843 235.788 136.15ZM209.475 132.167C209.948 133.192 210.579 134.099 211.348 134.888C212.136 135.676 213.043 136.307 214.068 136.781C215.093 137.254 216.177 137.49 217.3 137.49C218.424 137.49 219.508 137.254 220.533 136.781C221.558 136.307 222.464 135.676 223.253 134.888C224.041 134.099 224.672 133.192 225.145 132.167C225.618 131.141 225.854 130.057 225.854 128.933C225.854 127.809 225.618 126.725 225.145 125.699C224.672 124.674 224.041 123.767 223.253 122.978C222.464 122.19 221.558 121.559 220.533 121.085C219.508 120.612 218.424 120.376 217.3 120.376C216.177 120.376 215.093 120.612 214.068 121.085C213.043 121.559 212.136 122.19 211.348 122.978C210.559 123.767 209.929 124.674 209.475 125.699C209.002 126.725 208.766 127.809 208.766 128.933C208.766 130.057 209.002 131.141 209.475 132.167Z" fill="#2D59F4"/>
<path d="M251.418 111.345V123.905H261.45V111.345H273V146.501H261.45V134.454H251.418V146.501H239.868V111.345H251.418Z" fill="#2D59F4"/>
<path d="M159.472 35.4917C164.37 35.4917 168.341 31.5191 168.341 26.6188C168.341 21.7184 164.37 17.7458 159.472 17.7458C154.573 17.7458 150.602 21.7184 150.602 26.6188C150.602 31.5191 154.573 35.4917 159.472 35.4917Z" fill="#2D59F4"/>
<path d="M125.177 61.9723C124.507 61.9723 123.955 61.4202 123.955 60.7301V51.7192C134.302 48.0714 141.733 38.2126 141.733 26.6187C141.733 11.9094 129.828 0 115.125 0C100.421 0 88.5166 11.9094 88.5166 26.6187C88.5166 38.2521 95.9866 48.1503 106.393 51.7586V65.3637C106.393 73.3493 112.76 79.8167 120.604 79.8167H166.37V61.9723H125.177ZM115.125 17.7458C120.033 17.7458 123.994 21.709 123.994 26.6187C123.994 31.5284 120.033 35.4916 115.125 35.4916C110.217 35.4916 106.255 31.5284 106.255 26.6187C106.255 21.709 110.217 17.7458 115.125 17.7458Z" fill="#2D59F4"/>
</g>
<defs>
<clipPath id="clip0_23_332">
<rect width="273" height="148" fill="white"/>
</clipPath>
</defs>
</svg>
