<svg width="30" height="30" viewBox="0 0 30 30" fill="none" xmlns="http://www.w3.org/2000/svg">
<path d="M15 0C12.0333 0 9.13319 0.879735 6.66645 2.52796C4.19972 4.17618 2.27713 6.51886 1.14181 9.25975C0.00649935 12.0006 -0.290551 15.0166 0.288227 17.9264C0.867006 20.8361 2.29562 23.5088 4.3934 25.6066C6.49119 27.7044 9.16393 29.133 12.0736 29.7118C14.9834 30.2906 17.9994 29.9935 20.7403 28.8582C23.4811 27.7229 25.8238 25.8003 27.472 23.3335C29.1203 20.8668 30 17.9667 30 15C29.9952 11.0232 28.4132 7.21074 25.6013 4.39875C22.7893 1.58675 18.9768 0.00484411 15 0ZM17.41 3.75L16.81 4.555H13.19L12.59 3.75H17.41ZM21.81 24.645C21.8095 25.0705 21.6403 25.4785 21.3394 25.7794C21.0385 26.0803 20.6305 26.2495 20.205 26.25H9.795C9.36948 26.2495 8.96152 26.0803 8.66063 25.7794C8.35974 25.4785 8.19049 25.0705 8.19 24.645V5.355C8.19049 4.92947 8.35974 4.52152 8.66063 4.22062C8.96152 3.91973 9.36948 3.75048 9.795 3.75H11.585C11.855 4.11 12.405 4.84 12.67 5.195C12.7074 5.24453 12.7557 5.28475 12.8113 5.3125C12.8668 5.34026 12.9279 5.3548 12.99 5.355H17.01C17.0721 5.3548 17.1332 5.34025 17.1887 5.3125C17.2442 5.28474 17.2926 5.24453 17.33 5.195C17.6 4.835 18.145 4.115 18.415 3.75H20.205C20.6305 3.75048 21.0385 3.91973 21.3394 4.22062C21.6402 4.52152 21.8095 4.92947 21.81 5.355L21.81 24.645Z" fill="#2D59F4"/>
<path d="M9.77501 15.0001C9.77501 16.3858 10.3255 17.7148 11.3054 18.6947C12.2852 19.6746 13.6142 20.2251 15 20.2251C16.3858 20.2251 17.7148 19.6746 18.6946 18.6947C19.6745 17.7148 20.225 16.3858 20.225 15.0001C19.94 8.07507 10.065 8.07007 9.77501 15.0001ZM12.595 11.2901C12.2686 11.8168 12.0242 12.39 11.87 12.9901H11.065C11.419 12.3004 11.9463 11.7145 12.595 11.2901ZM10.58 15.0001C10.5772 14.5922 10.6345 14.1862 10.75 13.7951H11.71C11.59 14.5939 11.59 15.4062 11.71 16.2051H10.75C10.6345 15.8139 10.5772 15.4079 10.58 15.0001ZM11.065 17.0101H11.87C12.0242 17.6102 12.2686 18.1834 12.595 18.7101C11.9463 18.2856 11.419 17.6998 11.065 17.0101ZM14.6 19.3651C13.785 19.1351 13.085 18.2301 12.72 17.0101H14.6V19.3651ZM14.6 16.2051H12.525C12.39 15.4074 12.39 14.5927 12.525 13.7951H14.6V16.2051ZM14.6 12.9901H12.72C13.085 11.7701 13.785 10.8651 14.6 10.6351V12.9901ZM15.4 10.6351C16.215 10.8651 16.915 11.7701 17.28 12.9901H15.4V10.6351ZM15.4 13.7951H17.475C17.6083 14.5929 17.6083 15.4073 17.475 16.2051H15.4V13.7951ZM15.4 19.3651V17.0101H17.28C16.915 18.2301 16.215 19.1351 15.4 19.3651ZM17.405 18.7101C17.7314 18.1834 17.9758 17.6102 18.13 17.0101H18.935C18.581 17.6998 18.0538 18.2856 17.405 18.7101ZM19.42 15.0001C19.4228 15.4079 19.3655 15.8139 19.25 16.2051H18.29C18.41 15.4062 18.41 14.5939 18.29 13.7951H19.25C19.3655 14.1862 19.4228 14.5922 19.42 15.0001ZM18.13 12.9901C17.9758 12.39 17.7314 11.8168 17.405 11.2901C18.0537 11.7145 18.581 12.3004 18.935 12.9901H18.13Z" fill="#2D59F4"/>
</svg>
