<svg width="40" height="40" viewBox="0 0 40 40" fill="none" xmlns="http://www.w3.org/2000/svg">
<g clip-path="url(#clip0_10_33)">
<path d="M12.7 27.4428L13.2875 26.7827C12.8583 25.4109 12.8571 23.9006 13.3156 22.5061C9.93906 24.3612 5.6643 23.622 3.1125 20.6038C1.21719 22.1069 0 24.4295 0 27.0311V38.7499C0 39.3967 0.525 39.9217 1.17188 39.9217H10.8266C10.6961 39.5553 10.625 39.1608 10.625 38.7499V32.8905C10.625 30.8811 11.3617 28.9459 12.7 27.4428Z" fill="#ABFF1A"/>
<path d="M9.375 21.1717C12.611 21.1717 15.2344 18.5484 15.2344 15.3123C15.2344 12.0763 12.611 9.45297 9.375 9.45297C6.13896 9.45297 3.51562 12.0763 3.51562 15.3123C3.51562 18.5484 6.13896 21.1717 9.375 21.1717Z" fill="#ABFF1A"/>
<path d="M36.8875 20.6038C34.3311 23.6274 30.0534 24.3585 26.6844 22.5053C27.1422 23.9027 27.1423 25.409 26.7125 26.7827L27.3 27.4428C28.6383 28.9459 29.375 30.8811 29.375 32.8905V38.7499C29.375 39.1608 29.3039 39.5553 29.1735 39.9217H38.8281C39.475 39.9217 40 39.3967 40 38.7499V27.0311C40 24.4295 38.7828 22.1069 36.8875 20.6038Z" fill="#ABFF1A"/>
<path d="M30.625 21.1717C33.861 21.1717 36.4844 18.5484 36.4844 15.3123C36.4844 12.0763 33.861 9.45297 30.625 9.45297C27.389 9.45297 24.7656 12.0763 24.7656 15.3123C24.7656 18.5484 27.389 21.1717 30.625 21.1717Z" fill="#ABFF1A"/>
<path d="M20 31.7186C17.7469 31.7186 15.7383 30.6537 14.4508 29.0006C13.5289 30.0365 12.9688 31.399 12.9688 32.8905V38.7498C12.9688 39.3967 13.4938 39.9217 14.1406 39.9217H25.8594C26.5062 39.9217 27.0312 39.3967 27.0312 38.7498V32.8905C27.0312 31.399 26.4711 30.0365 25.5492 29.0006C24.2617 30.6537 22.2531 31.7186 20 31.7186Z" fill="#ABFF1A"/>
<path d="M20 29.3748C22.5888 29.3748 24.6875 27.2762 24.6875 24.6873C24.6875 22.0985 22.5888 19.9998 20 19.9998C17.4112 19.9998 15.3125 22.0985 15.3125 24.6873C15.3125 27.2762 17.4112 29.3748 20 29.3748Z" fill="#ABFF1A"/>
<path d="M16.6655 9.53063C18.0035 10.7672 19.3298 11.5884 19.3856 11.6228C19.7624 11.8547 20.2375 11.8547 20.6143 11.6228C20.6702 11.5884 21.9964 10.7672 23.3344 9.53063C25.2691 7.74267 26.25 6.00446 26.25 4.36439C26.25 0.639698 22.5461 -1.10866 20 0.960479C17.4482 -1.11327 13.75 0.649541 13.75 4.36439C13.75 6.00446 14.7309 7.74267 16.6655 9.53063Z" fill="#ABFF1A"/>
</g>
<defs>
<clipPath id="clip0_10_33">
<rect width="40" height="40" fill="white"/>
</clipPath>
</defs>
</svg>
