<svg width="30" height="30" viewBox="0 0 30 30" fill="none" xmlns="http://www.w3.org/2000/svg">
<path fill-rule="evenodd" clip-rule="evenodd" d="M15 0C23.284 0 30 6.71566 30 15C30 23.2843 23.284 30 15 30C6.71596 30 0 23.2845 0 15C0 6.71549 6.71601 0 15 0ZM23.2213 19.1822L20.4492 17.5818C20.1894 17.4325 19.881 17.3922 19.5915 17.4697C19.302 17.5473 19.0551 17.7363 18.9046 17.9955L18.7955 18.1848C18.663 18.4142 18.4835 18.6128 18.2686 18.7676C18.0538 18.9225 17.8085 19.03 17.549 19.0831C17.2896 19.1361 17.0218 19.1336 16.7634 19.0756C16.505 19.0175 16.2619 18.9053 16.05 18.7464C15.1437 18.0636 14.2868 17.3176 13.4857 16.514C12.682 15.7129 11.936 14.8559 11.2533 13.9495C11.0944 13.7377 10.9822 13.4947 10.9241 13.2363C10.8661 12.978 10.8635 12.7103 10.9165 12.4508C10.9695 12.1914 11.077 11.9462 11.2317 11.7314C11.3865 11.5165 11.5851 11.337 11.8144 11.2045L12.0035 11.0952C12.2627 10.9447 12.4518 10.6977 12.5295 10.4082C12.6071 10.1187 12.5669 9.81028 12.4177 9.55031L10.8172 6.7783C10.6828 6.54258 10.4677 6.36344 10.2115 6.27397C9.95536 6.18451 9.67548 6.19075 9.42357 6.29156L9.389 6.30504C8.85492 6.51328 7.3299 7.07502 6.93932 7.46566C6.8759 7.52908 6.81638 7.59628 6.76107 7.66688C5.80348 8.89025 6.28377 10.8786 6.78943 12.1832C7.72031 14.5851 9.48545 16.8955 11.2948 18.7046C13.1041 20.5138 15.4144 22.2795 17.8162 23.2102C18.6489 23.5328 19.5865 23.7883 20.4854 23.7883C21.2379 23.7883 21.9885 23.6055 22.5342 23.06C22.9194 22.675 23.4869 21.1368 23.6952 20.6082L23.7086 20.574C23.8094 20.3222 23.8156 20.0425 23.7259 19.7866C23.6363 19.5307 23.4572 19.316 23.2213 19.1822ZM14.7803 7.589C14.7803 7.7444 14.8421 7.89344 14.9519 8.00332C15.0618 8.11321 15.2109 8.17494 15.3663 8.17494C17.079 8.17513 18.7215 8.85558 19.9325 10.0666C21.1436 11.2777 21.8241 12.9202 21.8242 14.6329C21.8242 14.7883 21.886 14.9373 21.9959 15.0472C22.1057 15.1571 22.2548 15.2188 22.4102 15.2188C22.5656 15.2188 22.7146 15.1571 22.8245 15.0472C22.9344 14.9373 22.9961 14.7883 22.9961 14.6329C22.996 12.6094 22.1921 10.6688 20.7612 9.23792C19.3304 7.80707 17.3897 7.0032 15.3662 7.00312C15.2108 7.00312 15.0618 7.06486 14.9519 7.17474C14.842 7.28463 14.7803 7.4336 14.7803 7.589ZM14.7803 10.8601C14.7803 11.0155 14.8421 11.1645 14.9519 11.2744C15.0618 11.3843 15.2109 11.446 15.3663 11.446C16.2112 11.447 17.0212 11.7831 17.6186 12.3805C18.2161 12.978 18.5521 13.788 18.5531 14.6329C18.5531 14.7883 18.6148 14.9373 18.7247 15.0472C18.8346 15.1571 18.9836 15.2188 19.139 15.2188C19.2944 15.2188 19.4434 15.1571 19.5533 15.0472C19.6632 14.9373 19.7249 14.7883 19.7249 14.6329C19.7236 13.4773 19.264 12.3694 18.4469 11.5523C17.6298 10.7352 16.5219 10.2755 15.3663 10.2742C15.2894 10.2742 15.2132 10.2893 15.1421 10.3188C15.071 10.3482 15.0064 10.3914 14.952 10.4458C14.8976 10.5002 14.8544 10.5647 14.825 10.6358C14.7955 10.7069 14.7803 10.7831 14.7803 10.8601Z" fill="#2D59F4"/>
</svg>
