<svg width="35" height="28" viewBox="0 0 35 28" fill="none" xmlns="http://www.w3.org/2000/svg">
<path d="M3.55469 28L31.0078 28C31.9648 28 32.8672 27.5917 33.5234 26.8917C34.207 26.1625 34.5625 25.2 34.5625 24.1792L34.4531 12.1333C34.4531 11.2583 34.1523 10.3833 33.6055 9.7125L27.0156 1.34167C26.332 0.495835 25.3477 1.10798e-06 24.3086 1.06256e-06L3.55469 1.5538e-07C1.58594 6.93235e-08 1.14997e-06 1.69167 1.05818e-06 3.79167L1.65739e-07 24.2083C7.39451e-08 26.3083 1.58594 28 3.55469 28ZM6.5625 10.2083L6.5625 8.75C6.5625 7.6125 7.41016 6.70833 8.47656 6.70833L10.1172 6.70833L10.1172 10.2083L6.5625 10.2083ZM11.7578 10.2083L11.7578 6.70833L15.0391 6.70833L15.0391 10.2083L11.7578 10.2083ZM6.5625 15.75L6.5625 11.9583L15.8594 11.9583C16.3242 11.9583 16.6797 11.5792 16.6797 11.0833L16.6797 6.70833L18.3203 6.70833C19.3867 6.70833 20.2344 7.6125 20.2344 8.75L20.2344 15.75L6.5625 15.75ZM8.47656 21.2917C7.41016 21.2917 6.5625 20.3875 6.5625 19.25L6.5625 17.5L10.1172 17.5L10.1172 21.2917L8.47656 21.2917ZM11.7578 21.2917L11.7578 17.5L15.0391 17.5L15.0391 21.2917L11.7578 21.2917ZM16.6797 21.2917L16.6797 17.5L20.2344 17.5L20.2344 19.25C20.2344 20.3875 19.3867 21.2917 18.3203 21.2917L16.6797 21.2917Z" fill="#2D59F4"/>
</svg>
