<svg width="40" height="32" viewBox="0 0 40 32" fill="none" xmlns="http://www.w3.org/2000/svg">
<path d="M4.0625 32L35.4375 32C36.5312 32 37.5625 31.5333 38.3125 30.7333C39.0937 29.9 39.5 28.8 39.5 27.6333L39.375 13.8667C39.375 12.8667 39.0312 11.8667 38.4062 11.1L30.875 1.53333C30.0937 0.566668 28.9687 1.44701e-06 27.7812 1.39511e-06L4.0625 3.58326e-07C1.8125 2.59976e-07 1.29832e-06 1.93333 1.19341e-06 4.33333L1.73479e-07 27.6667C6.85721e-08 30.0667 1.8125 32 4.0625 32ZM7.5 11.6667L7.5 10C7.5 8.7 8.46875 7.66667 9.6875 7.66667L11.5625 7.66667L11.5625 11.6667L7.5 11.6667ZM13.4375 11.6667L13.4375 7.66667L17.1875 7.66667L17.1875 11.6667L13.4375 11.6667ZM7.5 18L7.5 13.6667L18.125 13.6667C18.6562 13.6667 19.0625 13.2333 19.0625 12.6667L19.0625 7.66667L20.9375 7.66667C22.1562 7.66667 23.125 8.7 23.125 10L23.125 18L7.5 18ZM9.6875 24.3333C8.46875 24.3333 7.5 23.3 7.5 22L7.5 20L11.5625 20L11.5625 24.3333L9.6875 24.3333ZM13.4375 24.3333L13.4375 20L17.1875 20L17.1875 24.3333L13.4375 24.3333ZM19.0625 24.3333L19.0625 20L23.125 20L23.125 22C23.125 23.3 22.1562 24.3333 20.9375 24.3333L19.0625 24.3333Z" fill="#ABFF1A"/>
</svg>
