<svg width="30" height="30" viewBox="0 0 30 30" fill="none" xmlns="http://www.w3.org/2000/svg">
<path d="M15 15.5871C15.677 15.5871 16.2258 15.0383 16.2258 14.3613C16.2258 13.6844 15.677 13.1356 15 13.1356C14.323 13.1356 13.7742 13.6844 13.7742 14.3613C13.7742 15.0383 14.323 15.5871 15 15.5871Z" fill="#2D59F4"/>
<path d="M11.1475 15.5871C11.8244 15.5871 12.3732 15.0383 12.3732 14.3613C12.3732 13.6844 11.8244 13.1356 11.1475 13.1356C10.4705 13.1356 9.92168 13.6844 9.92168 14.3613C9.92168 15.0383 10.4705 15.5871 11.1475 15.5871Z" fill="#2D59F4"/>
<path d="M15 0C6.71602 0 0 6.71602 0 15C0 23.284 6.71602 30 15 30C23.284 30 30 23.284 30 15C30 6.71602 23.284 0 15 0ZM24.668 17.8318C24.668 18.5983 24.3635 19.3333 23.8216 19.8753C23.2796 20.4172 22.5446 20.7217 21.7781 20.7217H15.0053L10.9623 23.7686C10.3529 24.2279 9.50508 23.6643 9.69258 22.9242L10.2521 20.7211H8.22188C7.45554 20.7211 6.72059 20.4167 6.17865 19.8749C5.63672 19.3331 5.33219 18.5982 5.33203 17.8318V15.9674V11.1814C5.33203 10.415 5.6365 9.67997 6.17845 9.13802C6.7204 8.59607 7.45544 8.2916 8.22188 8.2916H21.7781C22.5446 8.2916 23.2796 8.59607 23.8216 9.13802C24.3635 9.67997 24.668 10.415 24.668 11.1814V15.9674V17.8318Z" fill="#2D59F4"/>
<path d="M18.8525 15.5871C19.5295 15.5871 20.0783 15.0383 20.0783 14.3613C20.0783 13.6844 19.5295 13.1356 18.8525 13.1356C18.1756 13.1356 17.6268 13.6844 17.6268 14.3613C17.6268 15.0383 18.1756 15.5871 18.8525 15.5871Z" fill="#2D59F4"/>
</svg>
