<svg width="47" height="47" viewBox="0 0 47 47" fill="none" xmlns="http://www.w3.org/2000/svg">
<path d="M21.245 0.616168C16.075 1.55711 11.9 5.76455 11.0023 10.9237C10.7752 12.1786 10.7969 14.0281 11.0455 15.2177L11.2401 16.1802L9.86626 17.5432C7.76818 19.6089 6.29708 21.7723 5.33452 24.1951C4.39358 26.5639 4.02557 28.3053 3.9499 30.8903C3.88504 33.01 4.01476 34.4595 4.45844 36.2008C5.38857 39.8889 7.12993 42.9284 9.84465 45.5782L10.8072 46.53H23.4944H36.1816L37.1441 45.5782C40.3458 42.4631 42.2709 38.6561 42.92 34.2C43.1794 32.3938 43.0821 29.4408 42.7038 27.6454C41.8493 23.6001 39.8593 20.0742 36.7982 17.186L35.7384 16.191L35.9437 15.2177C36.3221 13.379 36.1816 11.1399 35.5325 9.16077C34.1154 4.78037 30.222 1.40577 25.6789 0.616168C24.5655 0.421118 22.3264 0.421118 21.245 0.616168ZM24.9547 7.53833C26.7717 8.01444 28.286 9.43102 28.9027 11.2156C29.1189 11.8539 29.2918 12.784 29.1837 12.784C29.1513 12.784 28.7725 12.6867 28.3401 12.5678C26.8041 12.157 25.4632 11.9944 23.4944 11.9944C21.526 11.9944 20.1846 12.1565 18.6487 12.5678C18.2158 12.6867 17.8375 12.784 17.805 12.784C17.6969 12.784 17.8699 11.8539 18.0861 11.2156C18.6919 9.46345 20.2171 8.02478 21.9909 7.54914C22.7701 7.34375 24.1651 7.33294 24.9547 7.53833ZM24.1002 16.7752C24.5763 17.0671 24.7493 17.6081 24.5331 18.1166C24.3061 18.6684 24.0029 18.8089 22.8998 18.8954C20.6499 19.0576 18.6816 19.6634 16.9402 20.7232C13.4359 22.8537 11.1212 26.5964 10.8833 30.5227C10.8509 31.0853 10.7752 31.7123 10.7104 31.8965C10.4726 32.7078 9.51 32.9456 8.87174 32.3722L8.51501 32.0479L8.53663 31.0097C8.63345 26.8558 10.7315 22.6051 14.0088 19.9769C16.6263 17.8675 19.8928 16.6455 23.062 16.5807C23.5813 16.5698 23.8516 16.6239 24.1002 16.7752Z" fill="#ABFF1A"/>
</svg>
