<svg width="32" height="32" viewBox="0 0 32 32" fill="none" xmlns="http://www.w3.org/2000/svg">
<path fill-rule="evenodd" clip-rule="evenodd" d="M16.0416 0C15.3739 0 14.8755 0.363774 14.5927 0.620119C14.2816 0.902103 14.0076 1.25898 13.7709 1.61575C13.2932 2.33605 12.8245 3.27712 12.3998 4.23525C11.544 6.16608 10.7712 8.38618 10.3673 9.59814C10.3613 9.61593 10.3439 9.6299 10.3228 9.63061C9.05731 9.6734 6.73808 9.78691 4.71667 10.0834C3.71801 10.2299 2.71228 10.4318 1.92703 10.7243C1.54037 10.8683 1.11871 11.0658 0.770907 11.3523C0.418897 11.6424 0 12.1507 0 12.8836C0 13.3906 0.191771 13.8393 0.365361 14.1596C0.551427 14.5029 0.797328 14.8431 1.06035 15.1643C1.58755 15.8081 2.28464 16.4973 3.00536 17.1528C4.45368 18.4701 6.13092 19.7709 7.08519 20.4901C7.10024 20.5014 7.10725 20.5203 7.10101 20.5407C6.73455 21.7441 6.09807 23.9457 5.69319 25.9879C5.49208 27.0021 5.33679 28.0319 5.31347 28.9015C5.30187 29.3341 5.32091 29.7819 5.40739 30.1924C5.48795 30.5748 5.66493 31.1116 6.11792 31.512C6.62632 31.9613 7.23821 32.021 7.66189 31.9947C8.09513 31.9679 8.52904 31.8425 8.91572 31.6965C9.69659 31.4018 10.578 30.9085 11.4232 30.3761C13.1306 29.3003 14.9385 27.904 15.9667 27.083C15.9853 27.068 16.0127 27.0676 16.0321 27.0832C17.0601 27.9049 18.8696 29.3022 20.5897 30.3787C21.4417 30.9119 22.3323 31.4051 23.1265 31.6994C23.5209 31.8456 23.9592 31.9688 24.3964 31.9949C24.8256 32.0206 25.4205 31.9604 25.9283 31.5434C26.404 31.1528 26.6016 30.6164 26.6933 30.2184C26.79 29.7993 26.8124 29.3443 26.8016 28.9084C26.7801 28.0324 26.6168 26.9988 26.4052 25.9848C25.9788 23.9424 25.3043 21.74 24.9141 20.5317C24.9072 20.5102 24.9145 20.4902 24.9301 20.4785C25.8892 19.7553 27.5627 18.4563 29.0061 17.1423C29.7244 16.4885 30.4188 15.8012 30.9439 15.1591C31.2059 14.8387 31.4508 14.4993 31.6361 14.1568C31.8092 13.8371 32 13.3894 32 12.8836C32 12.1514 31.582 11.6434 31.2303 11.3533C30.8828 11.0667 30.4616 10.8692 30.0755 10.7252C29.2913 10.4328 28.2869 10.2308 27.2896 10.0843C25.2708 9.78774 22.9535 9.67391 21.6851 9.63089C21.6637 9.63016 21.6465 9.61623 21.6408 9.5983C21.246 8.38272 20.4925 6.16455 19.654 4.23637C19.238 3.27969 18.7776 2.33953 18.3059 1.61952C18.0723 1.26293 17.8007 0.905357 17.4907 0.622459C17.2081 0.364558 16.7103 0 16.0416 0Z" fill="#2D59F4"/>
</svg>
