<svg width="50" height="50" viewBox="0 0 50 50" fill="none" xmlns="http://www.w3.org/2000/svg">
<path fill-rule="evenodd" clip-rule="evenodd" d="M25.052 5C24.2173 5 23.5943 5.45472 23.2408 5.77515C22.852 6.12763 22.5095 6.57372 22.2137 7.01969C21.6165 7.92006 21.0307 9.0964 20.4998 10.2941C19.43 12.7076 18.464 15.4827 17.9591 16.9977C17.9517 17.0199 17.9299 17.0374 17.9035 17.0383C16.3216 17.0918 13.4226 17.2336 10.8958 17.6043C9.64752 17.7873 8.39035 18.0398 7.40878 18.4053C6.92547 18.5853 6.39839 18.8322 5.96363 19.1904C5.52362 19.553 5 20.1883 5 21.1046C5 21.7382 5.23971 22.2991 5.4567 22.6995C5.68928 23.1286 5.99666 23.5538 6.32544 23.9554C6.98443 24.7601 7.8558 25.6216 8.7567 26.441C10.5671 28.0876 12.6636 29.7136 13.8565 30.6126C13.8753 30.6268 13.8841 30.6504 13.8763 30.6759C13.4182 32.1801 12.6226 34.9322 12.1165 37.4848C11.8651 38.7527 11.671 40.0399 11.6418 41.1268C11.6273 41.6676 11.6511 42.2273 11.7592 42.7406C11.8599 43.2184 12.0812 43.8895 12.6474 44.3899C13.2829 44.9517 14.0478 45.0262 14.5774 44.9934C15.1189 44.9598 15.6613 44.8032 16.1446 44.6206C17.1207 44.2523 18.2226 43.6357 19.279 42.9701C21.4133 41.6254 23.6732 39.88 24.9583 38.8537C24.9817 38.835 25.0158 38.8345 25.0402 38.854C26.3252 39.8812 28.587 41.6277 30.7372 42.9734C31.8022 43.6398 32.9153 44.2564 33.9082 44.6243C34.4012 44.807 34.949 44.961 35.4955 44.9937C36.032 45.0257 36.7757 44.9505 37.4103 44.4293C38.005 43.941 38.252 43.2705 38.3667 42.7731C38.4875 42.2492 38.5155 41.6804 38.502 41.1355C38.4752 40.0405 38.271 38.7485 38.0065 37.481C37.4735 34.928 36.6303 32.175 36.1427 30.6646C36.134 30.6378 36.1432 30.6128 36.1627 30.5981C37.3615 29.6941 39.4533 28.0704 41.2577 26.4279C42.1555 25.6106 43.0235 24.7515 43.6798 23.9489C44.0073 23.5483 44.3135 23.1241 44.5452 22.696C44.7615 22.2963 45 21.7367 45 21.1046C45 20.1893 44.4775 19.5542 44.0378 19.1916C43.6035 18.8334 43.077 18.5865 42.5943 18.4065C41.6142 18.041 40.3587 17.7885 39.112 17.6054C36.5885 17.2347 33.6918 17.0924 32.1063 17.0386C32.0797 17.0377 32.0582 17.0203 32.051 16.9979C31.5575 15.4784 30.6157 12.7057 29.5675 10.2955C29.0475 9.09962 28.472 7.92441 27.8823 7.0244C27.5903 6.57866 27.2508 6.1317 26.8633 5.77807C26.5102 5.4557 25.8878 5 25.052 5Z" fill="#ABFF1A"/>
</svg>
