<svg width="30" height="30" viewBox="0 0 30 30" fill="none" xmlns="http://www.w3.org/2000/svg">
<path fill-rule="evenodd" clip-rule="evenodd" d="M15 0C6.72891 0 0 6.72908 0 15C0 23.2709 6.72902 30 15 30C23.271 30 30 23.2709 30 15C30 6.72908 23.2711 0 15 0ZM22.8792 7.06594C23.304 7.06643 23.7113 7.23543 24.0118 7.53586C24.3122 7.83629 24.4812 8.24362 24.4816 8.66848V18.9483C24.4812 19.3732 24.3122 19.7805 24.0118 20.081C23.7113 20.3814 23.304 20.5504 22.8792 20.5509H15.7031V20.9108L17.9378 21.5553C18.0265 21.5809 18.1093 21.6238 18.1815 21.6814C18.2536 21.739 18.3137 21.8103 18.3584 21.8911C18.403 21.972 18.4312 22.0609 18.4415 22.1526C18.4518 22.2444 18.4439 22.3373 18.4183 22.426C18.3926 22.5147 18.3498 22.5976 18.2922 22.6697C18.2345 22.7419 18.1633 22.802 18.0824 22.8466C18.0016 22.8912 17.9127 22.9195 17.8209 22.9298C17.7292 22.94 17.6363 22.9321 17.5475 22.9065L15 22.1711L12.4516 22.9065C12.2725 22.9582 12.0801 22.9366 11.9168 22.8464C11.7536 22.7563 11.6329 22.6049 11.5812 22.4258C11.5295 22.2466 11.5511 22.0542 11.6413 21.891C11.7314 21.7277 11.8827 21.607 12.0619 21.5553L14.2969 20.9108V20.5509H7.12084C6.69598 20.5504 6.28866 20.3814 5.98824 20.081C5.68783 19.7805 5.51884 19.3732 5.51836 18.9483V8.66848C5.51884 8.24362 5.68783 7.83629 5.98824 7.53586C6.28866 7.23543 6.69598 7.06643 7.12084 7.06594H22.8792ZM23.0752 18.9483C23.0745 19.0002 23.0537 19.0497 23.017 19.0864C22.9803 19.1231 22.9308 19.1439 22.8789 19.1446H7.12084C7.06899 19.1439 7.01944 19.1231 6.98277 19.0864C6.94611 19.0497 6.92523 19.0002 6.92461 18.9483V8.66848C6.92523 8.61663 6.94611 8.56708 6.98277 8.53041C7.01944 8.49374 7.06899 8.47287 7.12084 8.47225H22.8792C22.931 8.47287 22.9806 8.49374 23.0172 8.53041C23.0539 8.56708 23.0748 8.61663 23.0754 8.66848L23.0752 18.9483Z" fill="#2D59F4"/>
</svg>
