<svg width="34" height="24" viewBox="0 0 34 24" fill="none" xmlns="http://www.w3.org/2000/svg">
<path d="M31.7205 0H1.5295C0.686375 0 0 0.686375 0 1.5295V22.3001C0 23.1432 0.686375 23.8296 1.5295 23.8296H31.7205C32.5636 23.8296 33.25 23.1432 33.25 22.3001V1.5295C33.25 0.686375 32.5636 0 31.7205 0ZM15.2445 9.64903H13.1385V15.3401C13.1385 15.6679 12.8725 15.9339 12.5448 15.9339C12.217 15.9339 11.951 15.6679 11.951 15.3401V9.64903H9.84497C9.51722 9.64903 9.25122 9.38303 9.25122 9.05528C9.25122 8.72753 9.51722 8.46153 9.84497 8.46153H15.2451C15.5729 8.46153 15.8389 8.72753 15.8389 9.05528C15.8389 9.38303 15.5729 9.64903 15.2451 9.64903H15.2445ZM23.9513 9.28981L21.2515 15.5747C21.1577 15.7932 20.9433 15.9339 20.7058 15.9339C20.4683 15.9339 20.254 15.7926 20.1602 15.5747L17.4604 9.28981C17.331 8.98878 17.4705 8.63966 17.7715 8.51022C18.072 8.38138 18.4211 8.51972 18.5511 8.82134L20.7053 13.8362L22.8594 8.82134C22.9894 8.51972 23.3385 8.38138 23.639 8.51022C23.9406 8.63966 24.0795 8.98878 23.9501 9.28981H23.9513Z" fill="#2D59F4"/>
</svg>
