<svg width="30" height="30" viewBox="0 0 30 30" fill="none" xmlns="http://www.w3.org/2000/svg">
<path d="M15 0C6.71602 0 0 6.71602 0 15C0 23.284 6.71602 30 15 30C23.284 30 30 23.284 30 15C30 6.71602 23.284 0 15 0ZM15 20.9309C14.6298 20.931 14.2679 20.8213 13.96 20.6157C13.6522 20.4101 13.4122 20.1178 13.2705 19.7758C13.1288 19.4338 13.0917 19.0575 13.1639 18.6944C13.2361 18.3313 13.4143 17.9978 13.6761 17.736C13.9378 17.4743 14.2714 17.296 14.6344 17.2238C14.9975 17.1516 15.3739 17.1887 15.7159 17.3305C16.0579 17.4722 16.3501 17.7121 16.5557 18.02C16.7613 18.3279 16.871 18.6898 16.8709 19.06C16.8709 19.3057 16.8225 19.5489 16.7285 19.7759C16.6345 20.0029 16.4967 20.2092 16.3229 20.3829C16.1492 20.5566 15.943 20.6944 15.716 20.7884C15.489 20.8825 15.2457 20.9309 15 20.9309ZM18.3498 17.7082C18.1124 17.7074 17.8812 17.6322 17.6887 17.4933C17.4962 17.3543 17.352 17.1586 17.2764 16.9336C17.1143 16.4586 16.8076 16.0462 16.3994 15.7542C15.9912 15.4622 15.5019 15.3052 15 15.3052C14.4981 15.3052 14.0088 15.4622 13.6006 15.7542C13.1924 16.0462 12.8857 16.4586 12.7236 16.9336C12.6483 17.159 12.5042 17.3551 12.3117 17.4943C12.1192 17.6336 11.8878 17.709 11.6502 17.71C11.4717 17.7104 11.2956 17.6684 11.1365 17.5876C10.9773 17.5067 10.8396 17.3893 10.7346 17.2449C10.6297 17.1005 10.5605 16.9332 10.5328 16.7569C10.505 16.5805 10.5195 16.4001 10.575 16.2305C10.8861 15.3036 11.4805 14.4978 12.2743 13.927C13.0681 13.3561 14.0211 13.049 14.9988 13.049C15.9765 13.049 16.9296 13.3561 17.7233 13.927C18.5171 14.4978 19.1115 15.3036 19.4227 16.2305C19.4778 16.3998 19.492 16.5798 19.4642 16.7558C19.4364 16.9317 19.3674 17.0986 19.2628 17.2427C19.1581 17.3868 19.0208 17.5041 18.8622 17.5851C18.7035 17.666 18.5279 17.7082 18.3498 17.7082ZM22.4238 17.7082H22.3488C22.0778 17.7077 21.8159 17.6099 21.6108 17.4327C21.4056 17.2556 21.2708 17.0107 21.2309 16.7426C21.0003 15.2555 20.2455 13.8998 19.1028 12.9206C17.9601 11.9414 16.5049 11.4032 15 11.4032C13.4951 11.4032 12.0399 11.9414 10.8972 12.9206C9.75446 13.8998 8.99966 15.2555 8.76914 16.7426C8.72918 17.0107 8.59439 17.2556 8.38925 17.4327C8.18411 17.6099 7.92223 17.7077 7.65117 17.7082H7.57617C7.41322 17.7081 7.25221 17.6728 7.10415 17.6048C6.95609 17.5367 6.82448 17.4375 6.71832 17.3139C6.61217 17.1902 6.53397 17.0451 6.48907 16.8885C6.44418 16.7318 6.43365 16.5673 6.4582 16.4062C6.77003 14.3643 7.80305 12.5016 9.37005 11.1557C10.9371 9.80983 12.9344 9.06984 15 9.06984C17.0656 9.06984 19.0629 9.80983 20.6299 11.1557C22.197 12.5016 23.23 14.3643 23.5418 16.4062C23.5664 16.5673 23.5558 16.7318 23.5109 16.8885C23.466 17.0451 23.3878 17.1902 23.2817 17.3139C23.1755 17.4375 23.0439 17.5367 22.8959 17.6048C22.7478 17.6728 22.5868 17.7081 22.4238 17.7082Z" fill="#2D59F4"/>
</svg>
