<svg width="50" height="39" viewBox="0 0 50 39" fill="none" xmlns="http://www.w3.org/2000/svg">
<path d="M29.5889 34.1306C30.0005 31.5918 28.276 29.2001 25.7372 28.7885C23.1984 28.3769 20.8067 30.1014 20.3952 32.6402C19.9836 35.179 21.7081 37.5707 24.2468 37.9822C26.7856 38.3938 29.1773 36.6693 29.5889 34.1306Z" fill="#ABFF1A"/>
<path d="M48.6099 9.78017C41.8981 3.06846 33.2666 0 25 0C16.7334 0 8.10196 3.06846 1.39014 9.78017C-0.464744 11.6372 -0.456248 14.5128 1.37285 16.3496C3.65703 18.6592 6.64766 17.7398 7.98682 16.3559C12.5331 11.8156 18.5746 9.31523 25 9.31523C31.4254 9.31523 37.4669 11.8156 42.0132 16.3559C43.3524 17.7398 46.343 18.6592 48.6272 16.3496C50.4563 14.5128 50.4648 11.6372 48.6099 9.78017Z" fill="#ABFF1A"/>
<path d="M25 14.366C20.3691 14.366 15.4 16.0876 11.5495 19.9373C9.67092 21.8158 9.70832 24.7046 11.5683 26.545C13.4151 28.3792 16.2884 28.3714 18.1347 26.5251C19.9685 24.6915 22.4066 23.6816 24.9999 23.6816C27.5933 23.6816 30.0314 24.6915 31.8652 26.5251C33.7114 28.3714 36.5849 28.3792 38.4316 26.545C40.2915 24.7046 40.3289 21.8158 38.4503 19.9373C34.6 16.0877 29.631 14.366 25 14.366Z" fill="#ABFF1A"/>
</svg>
