<svg width="40" height="35" viewBox="0 0 40 35" fill="none" xmlns="http://www.w3.org/2000/svg">
<g clip-path="url(#clip0_64_55)">
<path d="M23.6711 32.0854C24.0004 30.0543 22.6208 28.141 20.5898 27.8117C18.5588 27.4825 16.6454 28.862 16.3161 30.8931C15.9869 32.9241 17.3665 34.8375 19.3975 35.1667C21.4285 35.496 23.3419 34.1164 23.6711 32.0854Z" fill="#2D59F4"/>
<path d="M38.8879 12.605C33.5184 7.23565 26.6133 4.78088 20 4.78088C13.3867 4.78088 6.48156 7.23565 1.11211 12.605C-0.371795 14.0906 -0.364998 16.3911 1.09828 17.8606C2.92563 19.7082 5.31813 18.9728 6.38946 17.8656C10.0265 14.2334 14.8597 12.2331 20 12.2331C25.1403 12.2331 29.9735 14.2334 33.6106 17.8656C34.6819 18.9728 37.0744 19.7082 38.9017 17.8606C40.365 16.3911 40.3718 14.0906 38.8879 12.605Z" fill="#2D59F4"/>
<path d="M20 16.2737C16.2952 16.2737 12.32 17.651 9.23961 20.7307C7.73672 22.2335 7.76664 24.5446 9.25461 26.0169C10.732 27.4842 13.0307 27.4781 14.5077 26.001C15.9748 24.5341 17.9252 23.7262 19.9999 23.7262C22.0746 23.7262 24.0251 24.5341 25.4921 26.001C26.9691 27.4781 29.2679 27.4842 30.7452 26.0169C32.2332 24.5446 32.2631 22.2335 30.7602 20.7307C27.68 17.6511 23.7048 16.2737 20 16.2737Z" fill="#2D59F4"/>
</g>
<defs>
<clipPath id="clip0_64_55">
<rect width="40" height="35" fill="white"/>
</clipPath>
</defs>
</svg>
