<svg width="50" height="50" viewBox="0 0 50 50" fill="none" xmlns="http://www.w3.org/2000/svg">
<path d="M5.56435 28.3167H12.8403C13.1428 28.3167 13.3896 28.0786 13.403 27.7777C13.4843 25.967 13.6643 24.1995 13.9376 22.505C13.9925 22.1647 13.7277 21.8571 13.3818 21.8571H6.97617C6.74822 21.8571 6.54442 21.9947 6.45555 22.2038C5.72344 23.9247 5.22626 25.7677 5.0038 27.693C4.96536 28.0252 5.22846 28.3167 5.56435 28.3167Z" fill="#ABFF1A"/>
<path d="M9.65012 18.4909H14.3665C14.6189 18.4909 14.8423 18.3253 14.9112 18.0836C15.4315 16.258 16.1287 14.389 17.037 12.6934C17.2922 12.217 16.7829 11.692 16.2943 11.9264C13.5231 13.2559 11.1024 15.1988 9.21123 17.5779C8.91754 17.9474 9.17687 18.4909 9.65012 18.4909Z" fill="#ABFF1A"/>
<path d="M19.0809 18.4911H30.919C31.3041 18.4911 31.5749 18.1146 31.4531 17.7506C27.9941 7.42011 22.0082 7.41284 18.5468 17.7506C18.4249 18.1144 18.6957 18.4911 19.0809 18.4911Z" fill="#ABFF1A"/>
<path d="M32.6486 31.6829H17.3513C17.0288 31.6829 16.7728 31.9525 16.7883 32.2732C16.8816 34.1943 17.0912 36.0036 17.3935 37.6784C17.442 37.9467 17.675 38.1425 17.9486 38.1425H32.0513C32.325 38.1425 32.5579 37.9467 32.6063 37.6784C32.9087 36.0036 33.1182 34.1943 33.2115 32.2732C33.2271 31.9525 32.9712 31.6829 32.6486 31.6829Z" fill="#ABFF1A"/>
<path d="M13.9377 37.4946C13.6644 35.8001 13.4844 34.0326 13.4031 32.222C13.3896 31.921 13.1428 31.6829 12.8404 31.6829H5.56436C5.22838 31.6829 4.96536 31.9743 5.00372 32.3067C5.22627 34.232 5.72344 36.075 6.45547 37.796C6.54435 38.005 6.74814 38.1426 6.9761 38.1426H13.3817C13.7279 38.1425 13.9926 37.8348 13.9377 37.4946Z" fill="#ABFF1A"/>
<path d="M17.3513 28.3168H32.6486C32.9712 28.3168 33.2271 28.0472 33.2116 27.7265C33.1183 25.8054 32.9087 23.9961 32.6064 22.3213C32.5579 22.053 32.3249 21.8572 32.0513 21.8572H17.9487C17.675 21.8572 17.442 22.053 17.3936 22.3213C17.0912 23.9961 16.8817 25.8054 16.7884 27.7265C16.7728 28.0472 17.0287 28.3168 17.3513 28.3168Z" fill="#ABFF1A"/>
<path d="M35.0886 18.0835C35.1575 18.3253 35.381 18.4909 35.6334 18.4909H40.3498C40.8229 18.4909 41.0823 17.9474 40.7886 17.5778C38.8975 15.1987 36.4769 13.2558 33.7055 11.9263C33.2169 11.6921 32.7076 12.217 32.9628 12.6934C33.8707 14.3884 34.5681 16.2571 35.0886 18.0835Z" fill="#ABFF1A"/>
<path d="M36.0623 22.505C36.3356 24.1995 36.5156 25.967 36.5969 27.7777C36.6104 28.0786 36.8572 28.3167 37.1596 28.3167H44.4356C44.7716 28.3167 45.0346 28.0253 44.9963 27.6929C44.7737 25.7677 44.2765 23.9247 43.5445 22.2037C43.4556 21.9946 43.2518 21.857 43.0239 21.857H36.6183C36.272 21.8571 36.0074 22.1647 36.0623 22.505Z" fill="#ABFF1A"/>
<path d="M44.4355 31.6829H37.1595C36.857 31.6829 36.6102 31.921 36.5967 32.222C36.5155 34.0328 36.3354 35.8001 36.0621 37.4946C36.0073 37.835 36.2721 38.1425 36.618 38.1425H43.0236C43.2515 38.1425 43.4553 38.005 43.5442 37.7959C44.2763 36.075 44.7735 34.2319 44.996 32.3067C45.0346 31.9743 44.7716 31.6829 44.4355 31.6829Z" fill="#ABFF1A"/>
<path d="M40.3498 41.5087H35.6334C35.381 41.5087 35.1576 41.6743 35.0887 41.916C34.5684 43.7415 33.8712 45.6107 32.9629 47.3062C32.7075 47.7826 33.217 48.3076 33.7056 48.0732C36.4769 46.7439 38.8976 44.8009 40.7887 42.4217C41.0824 42.0522 40.823 41.5087 40.3498 41.5087Z" fill="#ABFF1A"/>
<path d="M14.9113 41.916C14.8423 41.6742 14.6189 41.5086 14.3666 41.5086H9.65017C9.177 41.5086 8.91767 42.0521 9.21136 42.4217C11.1024 44.8008 13.5231 46.7438 16.2945 48.0731C16.7829 48.3075 17.2923 47.7825 17.0372 47.3061C16.1292 45.6111 15.4317 43.742 14.9113 41.916Z" fill="#ABFF1A"/>
<path d="M30.919 41.5087H19.0809C18.6956 41.5087 18.4249 41.8853 18.5468 42.2492C22.0057 52.5797 27.9916 52.587 31.4531 42.2492C31.575 41.8853 31.3041 41.5087 30.919 41.5087Z" fill="#ABFF1A"/>
</svg>
